<svg width="44" height="44" viewBox="0 0 44 44" fill="none" xmlns="http://www.w3.org/2000/svg">
<path fill-rule="evenodd" clip-rule="evenodd" d="M21.9998 7.79175C22.7592 7.79175 23.3748 8.40736 23.3748 9.16675V20.6251H34.8332C35.5926 20.6251 36.2082 21.2407 36.2082 22.0001C36.2082 22.7595 35.5926 23.3751 34.8332 23.3751H23.3748V34.8334C23.3748 35.5928 22.7592 36.2084 21.9998 36.2084C21.2404 36.2084 20.6248 35.5928 20.6248 34.8334V23.3751H9.1665C8.40711 23.3751 7.7915 22.7595 7.7915 22.0001C7.7915 21.2407 8.40711 20.6251 9.1665 20.6251H20.6248V9.16675C20.6248 8.40736 21.2404 7.79175 21.9998 7.79175Z" fill="currentColor"/>
</svg>
