<svg width="28" height="28" viewBox="0 0 28 28" fill="none" xmlns="http://www.w3.org/2000/svg">
<path fill-rule="evenodd" clip-rule="evenodd" d="M3.87109 7.00001C3.87109 6.5607 4.22723 6.20456 4.66655 6.20456H12.8332C13.2725 6.20456 13.6287 6.5607 13.6287 7.00001C13.6287 7.43933 13.2725 7.79547 12.8332 7.79547H4.66655C4.22723 7.79547 3.87109 7.43933 3.87109 7.00001ZM20.4374 6.43754C20.7481 6.1269 21.2517 6.1269 21.5624 6.43754L25.0624 9.93754C25.373 10.2482 25.373 10.7518 25.0624 11.0625C24.7517 11.3731 24.2481 11.3731 23.9374 11.0625L21.7953 8.92041V21C21.7953 21.4393 21.4392 21.7955 20.9999 21.7955C20.5606 21.7955 20.2044 21.4393 20.2044 21V8.92041L18.0624 11.0625C17.7517 11.3731 17.2481 11.3731 16.9374 11.0625C16.6268 10.7518 16.6268 10.2482 16.9374 9.93754L20.4374 6.43754ZM3.87109 14C3.87109 13.5607 4.22723 13.2046 4.66655 13.2046H12.8332C13.2725 13.2046 13.6287 13.5607 13.6287 14C13.6287 14.4393 13.2725 14.7955 12.8332 14.7955H4.66655C4.22723 14.7955 3.87109 14.4393 3.87109 14ZM3.87109 21C3.87109 20.5607 4.22723 20.2046 4.66655 20.2046H15.1665C15.6059 20.2046 15.962 20.5607 15.962 21C15.962 21.4393 15.6059 21.7955 15.1665 21.7955H4.66655C4.22723 21.7955 3.87109 21.4393 3.87109 21Z" fill="#452B14"/>
</svg>
