<svg width="28" height="28" viewBox="0 0 28 28" fill="none" xmlns="http://www.w3.org/2000/svg">
<path fill-rule="evenodd" clip-rule="evenodd" d="M14.1322 3.84307C15.3737 3.09818 17.0057 2.70459 18.6662 2.70459C20.3268 2.70459 21.9588 3.09818 23.2003 3.84307C24.4336 4.58306 25.295 5.69253 25.295 7.00004V21C25.295 22.3559 24.3832 23.4473 23.2001 24.1571C22.0011 24.8764 20.3962 25.2955 18.6662 25.2955C16.9363 25.2955 15.3313 24.8764 14.1324 24.1571C12.9493 23.4473 12.0374 22.3559 12.0374 21V7.00004C12.0374 5.69253 12.8989 4.58306 14.1322 3.84307ZM13.6283 9.81816V11.6667C13.6283 12.2441 14.0226 12.9026 14.9508 13.4595C15.8633 14.0069 17.175 14.3713 18.6662 14.3713C20.1574 14.3713 21.4692 14.0069 22.3816 13.4595C23.3099 12.9026 23.7041 12.2441 23.7041 11.6667V9.81816C23.5447 9.9383 23.3763 10.0514 23.2003 10.157C21.9588 10.9019 20.3268 11.2955 18.6662 11.2955C17.0057 11.2955 15.3737 10.9019 14.1322 10.157C13.9562 10.0514 13.7878 9.9383 13.6283 9.81816ZM23.7041 7.00004C23.7041 7.54904 23.3364 8.22006 22.3818 8.79282C21.4353 9.36068 20.0998 9.70459 18.6662 9.70459C17.2326 9.70459 15.8971 9.36068 14.9507 8.79282C13.9961 8.22006 13.6283 7.54904 13.6283 7.00004C13.6283 6.45105 13.9961 5.78003 14.9507 5.20727C15.8971 4.63941 17.2326 4.2955 18.6662 4.2955C20.0998 4.2955 21.4353 4.63941 22.3818 5.20727C23.3364 5.78003 23.7041 6.45105 23.7041 7.00004ZM23.7041 14.4849C23.5434 14.6059 23.3747 14.719 23.2001 14.8238C22.0011 15.5431 20.3962 15.9622 18.6662 15.9622C16.9363 15.9622 15.3313 15.5431 14.1324 14.8238C13.9578 14.719 13.7891 14.6059 13.6283 14.4849V16.3334C13.6283 16.9107 14.0226 17.5693 14.9508 18.1262C15.8633 18.6736 17.175 19.0379 18.6662 19.0379C20.1574 19.0379 21.4692 18.6736 22.3816 18.1262C23.3099 17.5693 23.7041 16.9107 23.7041 16.3334V14.4849ZM23.7041 19.1516C23.5434 19.2726 23.3747 19.3857 23.2001 19.4904C22.0011 20.2097 20.3962 20.6288 18.6662 20.6288C16.9363 20.6288 15.3313 20.2097 14.1324 19.4904C13.9578 19.3857 13.7891 19.2726 13.6283 19.1516V21C13.6283 21.5774 14.0226 22.236 14.9508 22.7929C15.8633 23.3403 17.175 23.7046 18.6662 23.7046C20.1574 23.7046 21.4692 23.3403 22.3816 22.7929C23.3099 22.236 23.7041 21.5774 23.7041 21V19.1516ZM5.83289 8.53792C6.27221 8.53792 6.62834 8.89406 6.62834 9.33338V9.70459H8.16622C8.60554 9.70459 8.96168 10.0607 8.96168 10.5C8.96168 10.9394 8.60554 11.2955 8.16622 11.2955H5.24956C4.99639 11.2955 4.7536 11.3961 4.57459 11.5751C4.39558 11.7541 4.29501 11.9969 4.29501 12.25C4.29501 12.5032 4.39558 12.746 4.57459 12.925C4.7536 13.104 4.99639 13.2046 5.24956 13.2046H6.41622C7.09132 13.2046 7.73877 13.4728 8.21613 13.9501C8.6935 14.4275 8.96168 15.0749 8.96168 15.75C8.96168 16.4251 8.6935 17.0726 8.21613 17.55C7.78902 17.9771 7.22575 18.2367 6.62834 18.2867V18.6667C6.62834 19.106 6.27221 19.4622 5.83289 19.4622C5.39357 19.4622 5.03743 19.106 5.03743 18.6667V18.2955H3.49956C3.06024 18.2955 2.7041 17.9394 2.7041 17.5C2.7041 17.0607 3.06024 16.7046 3.49956 16.7046H6.41622C6.66938 16.7046 6.91218 16.604 7.09119 16.425C7.2702 16.246 7.37077 16.0032 7.37077 15.75C7.37077 15.4969 7.2702 15.2541 7.09119 15.0751C6.91218 14.8961 6.66938 14.7955 6.41622 14.7955H5.24956C4.57446 14.7955 3.92701 14.5273 3.44965 14.05C2.97228 13.5726 2.7041 12.9251 2.7041 12.25C2.7041 11.5749 2.97228 10.9275 3.44965 10.4501C3.87676 10.023 4.44003 9.76337 5.03743 9.71344V9.33338C5.03743 8.89406 5.39357 8.53792 5.83289 8.53792Z" fill="currentColor"/>
</svg>
