<svg width="44" height="44" viewBox="0 0 44 44" fill="none" xmlns="http://www.w3.org/2000/svg">
<path fill-rule="evenodd" clip-rule="evenodd" d="M10.0277 10.0277C10.5647 9.49076 11.4353 9.49076 11.9723 10.0277L22 20.0555L32.0277 10.0277C32.5647 9.49076 33.4353 9.49076 33.9723 10.0277C34.5092 10.5647 34.5092 11.4353 33.9723 11.9723L23.9445 22L33.9723 32.0277C34.5092 32.5647 34.5092 33.4353 33.9723 33.9723C33.4353 34.5092 32.5647 34.5092 32.0277 33.9723L22 23.9445L11.9723 33.9723C11.4353 34.5092 10.5647 34.5092 10.0277 33.9723C9.49076 33.4353 9.49076 32.5647 10.0277 32.0277L20.0555 22L10.0277 11.9723C9.49076 11.4353 9.49076 10.5647 10.0277 10.0277Z" fill="currentColor"/>
</svg>
