<svg width="18" height="18" viewBox="0 0 18 18" fill="none" xmlns="http://www.w3.org/2000/svg">
<path d="M15.873 8.83105C15.8523 7.9858 15.6755 7.15118 15.3516 6.36914C15.086 5.72801 14.7253 5.132 14.2827 4.60059L4.60059 14.2827C5.132 14.7253 5.72801 15.086 6.36914 15.3516C7.20324 15.6971 8.09718 15.875 9 15.875L9.16895 15.873C10.0142 15.8523 10.8488 15.6755 11.6309 15.3516C12.465 15.0061 13.2229 14.4997 13.8613 13.8613C14.4997 13.2229 15.0061 12.465 15.3516 11.6309C15.6971 10.7968 15.875 9.90282 15.875 9L15.873 8.83105ZM2.12695 9.16895C2.14773 10.0142 2.32451 10.8488 2.64844 11.6309C2.91391 12.2718 3.27444 12.8676 3.7168 13.3989L13.3989 3.7168C12.8676 3.27444 12.2718 2.91391 11.6309 2.64844C10.8488 2.32451 10.0142 2.14773 9.16895 2.12695L9 2.125C8.09718 2.125 7.20324 2.30295 6.36914 2.64844C5.53503 2.99394 4.77707 3.50027 4.13867 4.13867C3.50027 4.77707 2.99394 5.53503 2.64844 6.36914C2.30295 7.20324 2.125 8.09718 2.125 9L2.12695 9.16895ZM17.1226 9.19971C17.098 10.1986 16.8892 11.1851 16.5063 12.1094C16.098 13.0951 15.4996 13.9907 14.7451 14.7451C13.9907 15.4996 13.0951 16.098 12.1094 16.5063C11.1851 16.8892 10.1986 17.098 9.19971 17.1226L9 17.125C7.93301 17.125 6.8764 16.9147 5.89062 16.5063C4.9049 16.098 4.00933 15.4996 3.25488 14.7451C2.50044 13.9907 1.90197 13.0951 1.49365 12.1094C1.11083 11.1851 0.902001 10.1986 0.877441 9.19971L0.875 9C0.875 7.93301 1.08533 6.8764 1.49365 5.89062C1.90197 4.9049 2.50044 4.00933 3.25488 3.25488C4.00933 2.50044 4.9049 1.90197 5.89062 1.49365C6.8764 1.08533 7.93301 0.875 9 0.875L9.19971 0.877441C10.1986 0.902001 11.1851 1.11083 12.1094 1.49365C13.0951 1.90197 13.9907 2.50044 14.7451 3.25488C15.4996 4.00933 16.098 4.9049 16.5063 5.89062C16.9147 6.8764 17.125 7.93301 17.125 9L17.1226 9.19971Z" fill="white"/>
</svg>
