<svg width="40" height="40" viewBox="0 0 40 40" fill="none" xmlns="http://www.w3.org/2000/svg">
<path fill-rule="evenodd" clip-rule="evenodd" d="M16.2511 5.41687C17.2456 4.42236 18.5944 3.86365 20.0009 3.86365C21.4073 3.86365 22.7562 4.42236 23.7507 5.41687C24.7452 6.41138 25.3039 7.76023 25.3039 9.16668C25.3039 10.5731 24.7452 11.922 23.7507 12.9165C22.7562 13.911 21.4073 14.4697 20.0009 14.4697C18.5944 14.4697 17.2456 13.911 16.2511 12.9165C15.2566 11.922 14.6979 10.5731 14.6979 9.16668C14.6979 7.76023 15.2566 6.41138 16.2511 5.41687ZM20.0009 6.13637C19.1972 6.13637 18.4264 6.45564 17.8581 7.02393C17.2898 7.59222 16.9706 8.36299 16.9706 9.16668C16.9706 9.97036 17.2898 10.7411 17.8581 11.3094C18.4264 11.8777 19.1972 12.197 20.0009 12.197C20.8046 12.197 21.5753 11.8777 22.1436 11.3094C22.7119 10.7411 23.0312 9.97036 23.0312 9.16668C23.0312 8.36299 22.7119 7.59222 22.1436 7.02393C21.5753 6.45564 20.8046 6.13637 20.0009 6.13637ZM12.7298 17.6486C13.4958 17.3328 14.3166 17.1716 15.1452 17.1743C15.9737 17.177 16.7935 17.3435 17.5574 17.6643C18.32 17.9845 19.0119 18.4521 19.5933 19.0404L20.0009 19.4474L20.4085 19.0404C20.9899 18.4521 21.6818 17.9845 22.4444 17.6643C23.2083 17.3435 24.0281 17.177 24.8566 17.1743C25.6851 17.1716 26.506 17.3328 27.272 17.6486C28.0379 17.9645 28.7339 18.4287 29.3197 19.0145C29.9056 19.6004 30.3698 20.2963 30.6856 21.0623C31.0014 21.8282 31.1626 22.6491 31.1599 23.4776C31.1573 24.3061 30.9907 25.1259 30.67 25.8899C30.3497 26.6526 29.8819 27.3445 29.2936 27.926C29.2927 27.9269 29.2918 27.9278 29.2909 27.9287L20.8045 36.4168C20.5914 36.63 20.3023 36.7497 20.0009 36.7497C19.6995 36.7497 19.4104 36.63 19.1973 36.4168L10.7109 27.9287C10.71 27.9278 10.7091 27.927 10.7082 27.9261C10.1198 27.3446 9.65209 26.6526 9.3318 25.8899C9.01103 25.1259 8.84451 24.3061 8.84183 23.4776C8.83915 22.6491 9.00036 21.8282 9.31618 21.0623C9.632 20.2963 10.0962 19.6004 10.6821 19.0145C11.2679 18.4287 11.9638 17.9645 12.7298 17.6486ZM15.1378 19.447C14.609 19.4453 14.085 19.5482 13.5961 19.7498C13.1072 19.9514 12.663 20.2476 12.2891 20.6216C11.9152 20.9955 11.6189 21.4397 11.4173 21.9286C11.2157 22.4175 11.1128 22.9414 11.1145 23.4703C11.1163 23.9991 11.2225 24.5224 11.4273 25.0099C11.632 25.4975 11.9312 25.9398 12.3075 26.3113L12.3128 26.3165L20.0009 34.0061L27.6942 26.3113C28.0706 25.9398 28.3697 25.4975 28.5745 25.0099C28.7792 24.5224 28.8855 23.9991 28.8872 23.4703C28.8889 22.9414 28.786 22.4175 28.5844 21.9286C28.3829 21.4397 28.0866 20.9955 27.7126 20.6216C27.3387 20.2476 26.8945 19.9514 26.4056 19.7498C25.9167 19.5482 25.3928 19.4453 24.864 19.447C24.3351 19.4487 23.8119 19.555 23.3243 19.7597C22.8367 19.9645 22.3944 20.2636 22.0229 20.64L22.0172 20.6458L20.8039 21.8574C20.3602 22.3005 19.6416 22.3005 19.1979 21.8574L17.9788 20.64C17.6073 20.2637 17.1651 19.9645 16.6775 19.7597C16.1899 19.555 15.6666 19.4487 15.1378 19.447Z" fill="currentColor"/>
</svg>
