<svg width="28" height="28" viewBox="0 0 28 28" fill="none" xmlns="http://www.w3.org/2000/svg">
<path fill-rule="evenodd" clip-rule="evenodd" d="M9.33322 2.70459C9.77253 2.70459 10.1287 3.06073 10.1287 3.50004V5.03792H17.8711V3.50004C17.8711 3.06073 18.2272 2.70459 18.6665 2.70459C19.1059 2.70459 19.462 3.06073 19.462 3.50004V5.03792H20.9999C21.8297 5.03792 22.6255 5.36756 23.2123 5.95432C23.799 6.54109 24.1287 7.33691 24.1287 8.16671V22.1667C24.1287 22.9965 23.799 23.7923 23.2123 24.3791C22.6255 24.9659 21.8297 25.2955 20.9999 25.2955H6.99988C6.17008 25.2955 5.37426 24.9659 4.78749 24.3791C4.20073 23.7923 3.87109 22.9965 3.87109 22.1667V8.16671C3.87109 7.33691 4.20073 6.54109 4.78749 5.95432C5.37426 5.36756 6.17008 5.03792 6.99988 5.03792H8.53776V3.50004C8.53776 3.06073 8.8939 2.70459 9.33322 2.70459ZM8.53776 6.62883H6.99988C6.59201 6.62883 6.20085 6.79086 5.91244 7.07927C5.62403 7.36767 5.462 7.75884 5.462 8.16671V12.0379H22.5378V8.16671C22.5378 7.75884 22.3757 7.36767 22.0873 7.07927C21.7989 6.79086 21.4078 6.62883 20.9999 6.62883H19.462V8.16671C19.462 8.60603 19.1059 8.96217 18.6665 8.96217C18.2272 8.96217 17.8711 8.60603 17.8711 8.16671V6.62883H10.1287V8.16671C10.1287 8.60603 9.77253 8.96217 9.33322 8.96217C8.8939 8.96217 8.53776 8.60603 8.53776 8.16671V6.62883ZM22.5378 13.6288H5.462V22.1667C5.462 22.5746 5.62403 22.9657 5.91244 23.2542C6.20085 23.5426 6.59201 23.7046 6.99988 23.7046H20.9999C21.4078 23.7046 21.7989 23.5426 22.0873 23.2542C22.3757 22.9657 22.5378 22.5746 22.5378 22.1667V13.6288ZM12.0378 17.5C12.0378 17.0607 12.3939 16.7046 12.8332 16.7046H13.9999C14.4392 16.7046 14.7953 17.0607 14.7953 17.5V21C14.7953 21.4394 14.4392 21.7955 13.9999 21.7955C13.5606 21.7955 13.2044 21.4394 13.2044 21V18.2955H12.8332C12.3939 18.2955 12.0378 17.9394 12.0378 17.5Z" fill="currentColor"/>
</svg>
