<svg width="24" height="24" viewBox="0 0 24 24" fill="none" xmlns="http://www.w3.org/2000/svg">
<path fill-rule="evenodd" clip-rule="evenodd" d="M3.31836 5.99993C3.31836 5.62338 3.62362 5.31812 4.00018 5.31812H13.0002C13.3767 5.31812 13.682 5.62338 13.682 5.99993C13.682 6.37649 13.3767 6.68175 13.0002 6.68175H4.00018C3.62362 6.68175 3.31836 6.37649 3.31836 5.99993ZM18.0002 5.31812C18.3767 5.31812 18.682 5.62338 18.682 5.99993V16.3539L20.5181 14.5178C20.7843 14.2515 21.216 14.2515 21.4823 14.5178C21.7486 14.7841 21.7486 15.2158 21.4823 15.4821L18.4823 18.4821C18.3544 18.6099 18.181 18.6818 18.0002 18.6818C17.8193 18.6818 17.6459 18.6099 17.5181 18.4821L14.5181 15.4821C14.2518 15.2158 14.2518 14.7841 14.5181 14.5178C14.7843 14.2515 15.216 14.2515 15.4823 14.5178L17.3184 16.3539V5.99993C17.3184 5.62338 17.6236 5.31812 18.0002 5.31812ZM3.31836 11.9999C3.31836 11.6234 3.62362 11.3181 4.00018 11.3181H11.0002C11.3767 11.3181 11.682 11.6234 11.682 11.9999C11.682 12.3765 11.3767 12.6818 11.0002 12.6818H4.00018C3.62362 12.6818 3.31836 12.3765 3.31836 11.9999ZM3.31836 17.9999C3.31836 17.6234 3.62362 17.3181 4.00018 17.3181H11.0002C11.3767 17.3181 11.682 17.6234 11.682 17.9999C11.682 18.3765 11.3767 18.6818 11.0002 18.6818H4.00018C3.62362 18.6818 3.31836 18.3765 3.31836 17.9999Z" fill="currentColor"/>
</svg>
