<svg width="40" height="40" viewBox="0 0 40 40" fill="none" xmlns="http://www.w3.org/2000/svg">
<path fill-rule="evenodd" clip-rule="evenodd" d="M8.50576 5.17279C9.34399 4.33456 10.4809 3.86365 11.6663 3.86365C12.8518 3.86365 13.9886 4.33456 14.8269 5.17279C15.6651 6.01102 16.136 7.14791 16.136 8.33334C16.136 9.51878 15.6651 10.6557 14.8269 11.4939C13.9886 12.3321 12.8518 12.803 11.6663 12.803C10.4809 12.803 9.34399 12.3321 8.50576 11.4939C7.66753 10.6557 7.19661 9.51878 7.19661 8.33334C7.19661 7.14791 7.66753 6.01102 8.50576 5.17279ZM11.6663 6.13637C11.0836 6.13637 10.5248 6.36784 10.1128 6.77985C9.70081 7.19186 9.46934 7.75067 9.46934 8.33334C9.46934 8.91602 9.70081 9.47483 10.1128 9.88684C10.5248 10.2988 11.0836 10.5303 11.6663 10.5303C12.249 10.5303 12.8078 10.2988 13.2198 9.88684C13.6318 9.47482 13.8633 8.91602 13.8633 8.33334C13.8633 7.75067 13.6318 7.19186 13.2198 6.77985C12.8078 6.36784 12.249 6.13637 11.6663 6.13637ZM25.1724 5.17279C26.0107 4.33456 27.1475 3.86365 28.333 3.86365C29.5184 3.86365 30.6553 4.33456 31.4935 5.17279C32.3318 6.01102 32.8027 7.14791 32.8027 8.33334C32.8027 9.51878 32.3318 10.6557 31.4935 11.4939C30.6553 12.3321 29.5184 12.803 28.333 12.803C27.1475 12.803 26.0107 12.3321 25.1724 11.4939C24.3342 10.6557 23.8633 9.51878 23.8633 8.33334C23.8633 7.14791 24.3342 6.01102 25.1724 5.17279ZM28.333 6.13637C27.7503 6.13637 27.1915 6.36784 26.7795 6.77985C26.3675 7.19186 26.136 7.75067 26.136 8.33334C26.136 8.91602 26.3675 9.47482 26.7795 9.88684C27.1915 10.2988 27.7503 10.5303 28.333 10.5303C28.9157 10.5303 29.4745 10.2988 29.8865 9.88684C30.2985 9.47482 30.5299 8.91602 30.5299 8.33334C30.5299 7.75067 30.2985 7.19186 29.8865 6.77985C29.4745 6.36784 28.9157 6.13637 28.333 6.13637ZM8.33298 17.803C7.75031 17.803 7.1915 18.0345 6.77949 18.4465C6.36747 18.8585 6.13601 19.4173 6.13601 20V21.6667C6.13601 22.2943 5.62724 22.803 4.99964 22.803C4.37205 22.803 3.86328 22.2943 3.86328 21.6667V20C3.86328 18.8146 4.33419 17.6777 5.17243 16.8395C6.01066 16.0012 7.14754 15.5303 8.33298 15.5303H11.6663C12.2939 15.5303 12.8027 16.0391 12.8027 16.6667C12.8027 17.2943 12.2939 17.803 11.6663 17.803H8.33298ZM27.1966 16.6667C27.1966 16.0391 27.7054 15.5303 28.333 15.5303H31.6663C32.8518 15.5303 33.9886 16.0012 34.8269 16.8395C35.6651 17.6777 36.136 18.8146 36.136 20V21.6667C36.136 22.2943 35.6272 22.803 34.9996 22.803C34.3721 22.803 33.8633 22.2943 33.8633 21.6667V20C33.8633 19.4173 33.6318 18.8585 33.2198 18.4465C32.8078 18.0345 32.249 17.803 31.6663 17.803H28.333C27.7054 17.803 27.1966 17.2943 27.1966 16.6667ZM16.8391 18.5061C17.6773 17.6679 18.8142 17.197 19.9996 17.197C21.1851 17.197 22.322 17.6679 23.1602 18.5061C23.9984 19.3444 24.4693 20.4812 24.4693 21.6667C24.4693 22.8521 23.9984 23.989 23.1602 24.8272C22.322 25.6655 21.1851 26.1364 19.9996 26.1364C18.8142 26.1364 17.6773 25.6655 16.8391 24.8272C16.0009 23.989 15.5299 22.8521 15.5299 21.6667C15.5299 20.4812 16.0009 19.3444 16.8391 18.5061ZM19.9996 19.4697C19.417 19.4697 18.8582 19.7012 18.4462 20.1132C18.0341 20.5252 17.8027 21.084 17.8027 21.6667C17.8027 22.2494 18.0341 22.8082 18.4462 23.2202C18.8582 23.6322 19.417 23.8636 19.9996 23.8636C20.5823 23.8636 21.1411 23.6322 21.5531 23.2202C21.9651 22.8082 22.1966 22.2494 22.1966 21.6667C22.1966 21.084 21.9651 20.5252 21.5531 20.1132C21.1411 19.7012 20.5823 19.4697 19.9996 19.4697ZM16.6663 31.1364C16.0836 31.1364 15.5248 31.3678 15.1128 31.7799C14.7008 32.1919 14.4693 32.7507 14.4693 33.3333V35C14.4693 35.6276 13.9606 36.1364 13.333 36.1364C12.7054 36.1364 12.1966 35.6276 12.1966 35V33.3333C12.1966 32.1479 12.6675 31.011 13.5058 30.1728C14.344 29.3346 15.4809 28.8636 16.6663 28.8636H23.333C24.5184 28.8636 25.6553 29.3346 26.4935 30.1728C27.3318 31.011 27.8027 32.1479 27.8027 33.3333V35C27.8027 35.6276 27.2939 36.1364 26.6663 36.1364C26.0387 36.1364 25.5299 35.6276 25.5299 35V33.3333C25.5299 32.7507 25.2985 32.1919 24.8865 31.7799C24.4745 31.3678 23.9157 31.1364 23.333 31.1364H16.6663Z" fill="currentColor"/>
</svg>
