<svg width="29" height="28" viewBox="0 0 29 28" fill="none" xmlns="http://www.w3.org/2000/svg">
<path fill-rule="evenodd" clip-rule="evenodd" d="M11.8416 3.02237C14.0643 2.48403 16.398 2.63305 18.5342 3.44973C20.6704 4.26641 22.5083 5.71227 23.805 7.5961C25.1016 9.47993 25.7959 11.713 25.796 13.9999C25.796 14.4392 25.4399 14.7954 25.0006 14.7954C24.5613 14.7954 24.2051 14.4393 24.2051 14C24.205 12.0351 23.6085 10.1166 22.4945 8.49811C21.3804 6.87962 19.8014 5.6374 17.9661 4.93574C16.1308 4.23409 14.1258 4.10605 12.2161 4.56857C10.3065 5.03109 8.58224 6.06237 7.2714 7.52602C5.96056 8.98968 5.12487 10.8168 4.87487 12.7656C4.62487 14.7145 4.97233 16.6934 5.87129 18.4405C6.77026 20.1876 8.17838 21.6207 9.90943 22.5503C11.6405 23.4798 13.6129 23.862 15.5659 23.6463C16.0025 23.5981 16.3956 23.913 16.4439 24.3496C16.4921 24.7863 16.1772 25.1794 15.7405 25.2276C13.4674 25.4787 11.1716 25.0338 9.15679 23.9519C7.14195 22.8699 5.50299 21.2019 4.45666 19.1684C3.41033 17.1348 3.00591 14.8316 3.29689 12.5632C3.58788 10.2948 4.56056 8.16825 6.0863 6.46465C7.61203 4.76105 9.61895 3.56071 11.8416 3.02237ZM10.2051 11.6666C10.2051 11.2273 10.5612 10.8712 11.0005 10.8712H11.0122C11.4515 10.8712 11.8077 11.2273 11.8077 11.6666C11.8077 12.1059 11.4515 12.4621 11.0122 12.4621H11.0005C10.5612 12.4621 10.2051 12.1059 10.2051 11.6666ZM17.2051 11.6666C17.2051 11.2273 17.5612 10.8712 18.0005 10.8712H18.0122C18.4515 10.8712 18.8077 11.2273 18.8077 11.6666C18.8077 12.1059 18.4515 12.4621 18.0122 12.4621H18.0005C17.5612 12.4621 17.2051 12.1059 17.2051 11.6666ZM11.0103 16.9488C11.3147 16.632 11.8183 16.622 12.135 16.9264C12.481 17.2589 12.8936 17.5142 13.3455 17.6755C13.7974 17.8367 14.2784 17.9003 14.7567 17.862C15.1946 17.827 15.5781 18.1535 15.6131 18.5915C15.6482 19.0294 15.3216 19.4128 14.8837 19.4479C14.1811 19.5041 13.4746 19.4107 12.8108 19.1738C12.1469 18.9369 11.5409 18.5619 11.0327 18.0735C10.7159 17.7691 10.7059 17.2656 11.0103 16.9488ZM20.0516 18.0853C20.3856 17.9437 20.7447 17.8711 21.1074 17.8717C21.4701 17.8723 21.8289 17.9462 22.1624 18.0889C22.3421 18.1658 22.5125 18.2618 22.6707 18.3751C22.8296 18.2621 23.0007 18.1665 23.1811 18.0901C23.5152 17.9487 23.8743 17.8762 24.237 17.877C24.5997 17.8777 24.9585 17.9518 25.2919 18.0946C25.625 18.2373 25.926 18.4458 26.1766 18.7075M21.1047 19.4626C20.9562 19.4624 20.8092 19.4921 20.6725 19.5501C20.5358 19.608 20.4122 19.693 20.3091 19.7998C20.0876 20.0294 19.9635 20.336 19.963 20.655C19.9624 20.9734 20.085 21.2797 20.3049 21.5099C20.3053 21.5103 20.3057 21.5108 20.3062 21.5112L22.6622 23.9423L25.0256 21.5208C25.0261 21.5203 25.0265 21.5198 25.027 21.5194C25.2478 21.2899 25.3715 20.9839 25.372 20.6653C25.3725 20.3461 25.2494 20.0391 25.0285 19.8087L25.0279 19.8081C24.9252 19.7009 24.8019 19.6154 24.6654 19.557C24.529 19.4985 24.3821 19.4682 24.2336 19.4679C24.0851 19.4676 23.9381 19.4972 23.8014 19.5551C23.6646 19.613 23.541 19.6979 23.4379 19.8047L23.4346 19.8081L23.2386 20.0088C23.0889 20.162 22.8838 20.2484 22.6695 20.2484C22.4553 20.2484 22.2502 20.162 22.1005 20.0088L21.8991 19.8026C21.7964 19.6953 21.6731 19.6099 21.5366 19.5515C21.4001 19.4931 21.2532 19.4629 21.1047 19.4626ZM20.0516 18.0853C19.7177 18.2268 19.4158 18.4343 19.1641 18.6953L20.0516 18.0853ZM19.1641 18.6953C18.6571 19.2208 18.3733 19.9222 18.3721 20.6524C18.3708 21.3825 18.6524 22.0848 19.1576 22.612L22.089 25.6369C22.2385 25.7911 22.444 25.8784 22.6588 25.8787C22.8736 25.8791 23.0794 25.7926 23.2295 25.6389L26.1671 22.6289L26.1701 22.6258C26.6776 22.1002 26.9617 21.3985 26.9629 20.668C26.9641 19.9375 26.6822 19.2347 26.1766 18.7075" fill="currentColor"/>
</svg>
