<svg width="29" height="28" viewBox="0 0 29 28" fill="none" xmlns="http://www.w3.org/2000/svg">
<path fill-rule="evenodd" clip-rule="evenodd" d="M14.4999 4.29574C12.8113 4.29574 11.1606 4.79647 9.75654 5.7346C8.3525 6.67274 7.25818 8.00615 6.61196 9.56622C5.96573 11.1263 5.79663 12.8429 6.12603 14.4991C6.45543 16.1553 7.26854 17.6766 8.46254 18.8707L13.4136 23.8205C13.4135 23.8205 13.4136 23.8206 13.4136 23.8205C13.7019 24.1085 14.093 24.2704 14.5005 24.2704C14.9079 24.2704 15.2987 24.1087 15.5871 23.8208M15.5871 23.8208L20.5372 18.8707C20.5372 18.8707 20.5372 18.8707 20.5372 18.8707C21.7312 17.6766 22.5443 16.1553 22.8737 14.4991C23.2031 12.8429 23.034 11.1263 22.3878 9.56622C21.7416 8.00615 20.6473 6.67274 19.2432 5.7346C17.8392 4.79647 16.1885 4.29574 14.4999 4.29574M8.87269 4.41181C10.5383 3.29886 12.4966 2.70483 14.4999 2.70483C16.5031 2.70483 18.4614 3.29886 20.1271 4.41181C21.7927 5.52475 23.091 7.10662 23.8576 8.95738C24.6243 10.8081 24.8249 12.8447 24.4341 14.8095C24.0433 16.7742 23.0787 18.579 21.6622 19.9956L16.712 24.9458C16.1254 25.5318 15.3297 25.8613 14.5005 25.8613C13.6712 25.8613 12.8759 25.5321 12.2892 24.946L7.33765 19.9957C5.92116 18.5791 4.95646 16.7742 4.56568 14.8095C4.1749 12.8447 4.37552 10.8081 5.14216 8.95738C5.9088 7.10662 7.20703 5.52475 8.87269 4.41181ZM11.4625 9.79594C12.2681 8.99038 13.3607 8.53783 14.4999 8.53783C15.6391 8.53783 16.7317 8.99038 17.5372 9.79594C18.3428 10.6015 18.7953 11.6941 18.7953 12.8333C18.7953 13.9725 18.3428 15.0651 17.5372 15.8706C16.7317 16.6762 15.6391 17.1287 14.4999 17.1287C13.3607 17.1287 12.2681 16.6762 11.4625 15.8706C10.657 15.0651 10.2044 13.9725 10.2044 12.8333C10.2044 11.6941 10.657 10.6015 11.4625 9.79594ZM14.4999 10.1287C13.7826 10.1287 13.0947 10.4137 12.5875 10.9209C12.0803 11.4281 11.7953 12.116 11.7953 12.8333C11.7953 13.5506 12.0803 14.2385 12.5875 14.7457C13.0947 15.2529 13.7826 15.5378 14.4999 15.5378C15.2172 15.5378 15.9051 15.2529 16.4123 14.7457C16.9195 14.2385 17.2044 13.5506 17.2044 12.8333C17.2044 12.116 16.9195 11.4281 16.4123 10.9209C15.9051 10.4137 15.2172 10.1287 14.4999 10.1287Z" fill="currentColor"/>
</svg>
