<svg width="18" height="18" viewBox="0 0 18 18" fill="none" xmlns="http://www.w3.org/2000/svg">
<path d="M8.375 16.5V14.625H7.3335C7.32451 14.625 7.31513 14.6249 7.30615 14.6245C6.68308 14.5976 6.08221 14.3849 5.58105 14.0137C5.07983 13.6424 4.70099 13.1293 4.49365 12.541L5.67285 12.1255C5.79725 12.4784 6.02449 12.786 6.3252 13.0088C6.62437 13.2304 6.98266 13.3578 7.35449 13.375H10.6665L10.7871 13.3711C11.0673 13.3531 11.3403 13.2724 11.5859 13.1343C11.725 13.056 11.8527 12.9604 11.9668 12.8506L8.74121 9.625H7.3335C6.7779 9.625 6.23223 9.47679 5.75293 9.1958C5.27367 8.91481 4.8778 8.51115 4.60645 8.02637C4.33513 7.54156 4.19787 6.99295 4.20898 6.4375C4.21669 6.05376 4.29648 5.67662 4.43994 5.32373L1.05811 1.94189L1.01514 1.89453C0.814894 1.64905 0.829274 1.28694 1.05811 1.05811C1.28694 0.829275 1.64905 0.814895 1.89453 1.01514L1.94189 1.05811L5.57422 4.69043C5.62466 4.72768 5.66771 4.77152 5.70361 4.81982L13.2002 12.3164C13.232 12.3426 13.2607 12.3713 13.2861 12.4023L16.9419 16.0581L16.9849 16.1055C17.1851 16.351 17.1707 16.7131 16.9419 16.9419C16.7131 17.1707 16.351 17.1851 16.1055 16.9849L16.0581 16.9419L12.8506 13.7344C12.6562 13.9243 12.4376 14.0893 12.1987 14.2236C11.7894 14.4539 11.3342 14.5887 10.8672 14.6187L10.6665 14.625H9.625V16.5C9.625 16.8452 9.34518 17.125 9 17.125C8.65482 17.125 8.375 16.8452 8.375 16.5ZM4.87549 11.7437C5.20102 11.6289 5.55809 11.8 5.67285 12.1255L4.49365 12.541C4.37901 12.2155 4.54999 11.8584 4.87549 11.7437ZM5.4585 6.4624C5.45181 6.79568 5.53448 7.12463 5.69727 7.41553C5.86006 7.70643 6.0972 7.94906 6.38477 8.11768C6.67237 8.2863 7.00011 8.375 7.3335 8.375H7.49121L5.46436 6.34814C5.46127 6.38608 5.45926 6.42421 5.4585 6.4624ZM13.5063 5.45898C13.621 5.7845 13.45 6.14162 13.1245 6.25635C12.799 6.37108 12.4419 6.20002 12.3271 5.87451L13.5063 5.45898ZM8.375 1.5C8.375 1.15482 8.65482 0.875 9 0.875C9.34518 0.875 9.625 1.15482 9.625 1.5V3.375H10.6665L10.6938 3.37549L10.8101 3.38281C11.3914 3.4297 11.949 3.63826 12.4189 3.98633C12.9202 4.35761 13.299 4.87069 13.5063 5.45898L12.3271 5.87451C12.2028 5.52156 11.9755 5.21398 11.6748 4.99121C11.3756 4.7696 11.0173 4.64221 10.6455 4.625H7.3335C6.98832 4.625 6.7085 4.34518 6.7085 4C6.7085 3.65482 6.98832 3.375 7.3335 3.375H8.375V1.5Z" fill="white"/>
</svg>
