<svg width="28" height="28" viewBox="0 0 28 28" fill="none" xmlns="http://www.w3.org/2000/svg">
<path d="M19.675 14.8682C17.1623 12.2315 16.4328 11.5997 14.499 12.1213C12.5652 12.6429 12.1433 14.0079 11.2735 17.5437C10.5276 20.5671 7.66151 21.5755 7.52705 24.0082C7.48712 24.4581 7.58296 25.115 7.70332 25.5549C8.18732 27.3732 9.73525 28.3212 11.2912 27.9015C13.225 27.3799 15.4875 25.1124 17.7915 24.4909C20.0954 23.8695 23.1811 24.6944 25.1149 24.1728C26.6708 23.7531 27.5409 22.1545 27.0565 20.3346C26.9392 19.8939 26.6944 19.2772 26.4363 18.9076C25.1096 16.8609 21.8228 17.1111 19.675 14.8682Z" fill="currentColor"/>
<path d="M25.8745 4.21708C25.6549 4.18633 25.4313 4.20042 25.2172 4.2585L25.1942 4.26471C24.0702 4.58778 23.1067 6.07068 22.901 7.97565C22.6532 10.2549 23.5821 12.2664 24.9834 12.4718C25.2042 12.5034 25.4272 12.488 25.6407 12.4304C26.7758 12.1242 27.7545 10.6305 27.9616 8.71197C28.2047 6.434 27.2682 4.42451 25.8745 4.21708Z" fill="currentColor"/>
<path d="M9.79602 10.0754C9.88049 10.0526 9.96344 10.0302 10.0419 9.99083C11.4391 9.40181 11.8425 7.2745 10.9491 5.23516C10.1035 3.31383 8.4079 2.16368 7.04856 2.53034C6.96409 2.55313 6.88115 2.5755 6.80273 2.61488C5.40546 3.2039 5.00205 5.33121 5.89552 7.37055C6.74101 9.28528 8.43822 10.4416 9.79755 10.075L9.79602 10.0754Z" fill="currentColor"/>
<path d="M19.5871 3.67743C19.3495 1.46118 17.9435 -0.178076 16.4394 0.0155282C16.3539 0.0262741 16.2692 0.0430175 16.186 0.065637C14.8267 0.432298 13.9311 2.28138 14.1546 4.37051C14.3922 6.58675 15.7982 8.22601 17.3024 8.03241C17.3882 8.02086 17.4728 8.00467 17.5557 7.9823C18.9151 7.61564 19.8121 5.75954 19.5871 3.67743Z" fill="currentColor"/>
<path d="M5.59641 17.7012C6.70489 16.8188 6.50785 14.6065 5.16361 12.7601C4.03133 11.2028 2.44342 10.4014 1.30988 10.7072C1.09484 10.7652 0.895529 10.8637 0.718489 11.0026C-0.38999 11.8849 -0.192947 14.0972 1.15129 15.9437C2.28357 17.501 3.87148 18.3023 5.00502 17.9966C5.22006 17.9386 5.41937 17.8401 5.59641 17.7012Z" fill="currentColor"/>
</svg>
