<svg width="56" height="54" viewBox="0 0 56 54" fill="none" xmlns="http://www.w3.org/2000/svg">
<path d="M22.9542 18.5283C20.0227 15.3962 19.1716 14.6457 16.9155 15.2653C14.6594 15.8849 14.1672 17.5064 13.1525 21.7065C12.2821 25.298 8.93843 26.4958 8.78155 29.3855C8.73497 29.92 8.84678 30.7003 8.98721 31.2228C9.55187 33.3828 11.3578 34.5089 13.173 34.0103C15.4291 33.3907 18.0688 30.6972 20.7567 29.959C23.4447 29.2208 27.0446 30.2006 29.3007 29.581C31.116 29.0825 32.1311 27.1836 31.5659 25.0217C31.4291 24.4983 31.1434 23.7657 30.8424 23.3267C29.2945 20.8954 25.4599 21.1926 22.9542 18.5283Z" fill="currentColor"/>
<path d="M30.187 5.87607C29.9307 5.83955 29.6699 5.85628 29.4201 5.92528L29.3932 5.93266C28.0819 6.31642 26.9578 8.07794 26.7178 10.3408C26.4288 13.0482 27.5124 15.4377 29.1473 15.6817C29.4049 15.7192 29.6651 15.7009 29.9142 15.6325C31.2385 15.2688 32.3803 13.4945 32.6219 11.2155C32.9055 8.50951 31.8129 6.12248 30.187 5.87607Z" fill="currentColor"/>
<path d="M11.4287 12.835C11.5272 12.808 11.624 12.7814 11.7155 12.7346C13.3456 12.0349 13.8163 9.50792 12.7739 7.08544C11.7874 4.80313 9.80921 3.43689 8.22332 3.87244C8.12477 3.89951 8.028 3.92608 7.93652 3.97286C6.30637 4.67255 5.83573 7.19953 6.87811 9.62202C7.86451 11.8965 9.84459 13.2701 11.4305 12.8345L11.4287 12.835Z" fill="currentColor"/>
<path d="M22.8516 5.23504C22.5744 2.60241 20.9341 0.655166 19.1793 0.885145C19.0795 0.897909 18.9808 0.917799 18.8837 0.944668C17.2978 1.38022 16.2529 3.5767 16.5137 6.05833C16.7909 8.69096 18.4312 10.6382 20.1861 10.4082C20.2862 10.3945 20.3849 10.3753 20.4817 10.3487C22.0676 9.91315 23.1141 7.70833 22.8516 5.23504Z" fill="currentColor"/>
<path d="M6.52915 21.8935C7.82237 20.8454 7.59249 18.2175 6.02421 16.0241C4.70322 14.1742 2.85066 13.2223 1.52819 13.5855C1.27732 13.6544 1.04478 13.7714 0.838237 13.9364C-0.454988 14.9845 -0.225104 17.6125 1.34318 19.8059C2.66416 21.6557 4.51673 22.6076 5.83919 22.2444C6.09007 22.1755 6.3226 22.0585 6.52915 21.8935Z" fill="currentColor"/>
<path d="M49.0625 41.9912C46.9686 39.754 46.3606 39.2179 44.7492 39.6605C43.1377 40.1031 42.7861 41.2613 42.0613 44.2613C41.4396 46.8267 39.0513 47.6823 38.9392 49.7464C38.9059 50.1281 38.9858 50.6855 39.0861 51.0587C39.4894 52.6015 40.7794 53.4059 42.076 53.0498C43.6875 52.6072 45.5729 50.6833 47.4929 50.156C49.4129 49.6287 51.9843 50.3286 53.5957 49.886C54.8923 49.5299 55.6174 48.1735 55.2138 46.6294C55.116 46.2555 54.912 45.7322 54.6969 45.4186C53.5913 43.682 50.8523 43.8943 49.0625 41.9912Z" fill="currentColor"/>
<path d="M54.2288 32.9539C54.0457 32.9278 53.8594 32.9398 53.681 32.9891L53.6618 32.9943C52.7251 33.2685 51.9223 34.5267 51.7508 36.143C51.5444 38.0769 52.3184 39.7837 53.4862 39.9579C53.6701 39.9847 53.856 39.9716 54.0339 39.9228C54.9798 39.663 55.7954 38.3956 55.968 36.7678C56.1706 34.8349 55.3901 33.1299 54.2288 32.9539Z" fill="currentColor"/>
<path d="M40.83 37.9246C40.9004 37.9053 40.9695 37.8863 41.0349 37.8529C42.1993 37.3531 42.5354 35.5481 41.7909 33.8177C41.0862 32.1875 39.6732 31.2116 38.5405 31.5227C38.4701 31.5421 38.401 31.5611 38.3356 31.5945C37.1712 32.0943 36.835 33.8992 37.5796 35.6296C38.2842 37.2542 39.6985 38.2353 40.8313 37.9242L40.83 37.9246Z" fill="currentColor"/>
<path d="M48.9893 32.496C48.7913 30.6156 47.6196 29.2247 46.3661 29.389C46.2949 29.3981 46.2243 29.4123 46.155 29.4315C45.0223 29.7426 44.2759 31.3115 44.4622 33.0841C44.6602 34.9646 45.8318 36.3554 47.0853 36.1912C47.1568 36.1814 47.2273 36.1676 47.2964 36.1486C48.4292 35.8375 49.1767 34.2627 48.9893 32.496Z" fill="currentColor"/>
<path d="M37.3303 44.395C38.2541 43.6463 38.0899 41.7692 36.9697 40.2025C36.0261 38.8812 34.7029 38.2012 33.7582 38.4607C33.579 38.5099 33.4129 38.5935 33.2654 38.7113C32.3417 39.46 32.5059 41.337 33.6261 42.9038C34.5696 44.2251 35.8929 44.905 36.8375 44.6456C37.0167 44.5964 37.1828 44.5128 37.3303 44.395Z" fill="currentColor"/>
</svg>
