<svg width="29" height="28" viewBox="0 0 29 28" fill="none" xmlns="http://www.w3.org/2000/svg">
<path fill-rule="evenodd" clip-rule="evenodd" d="M5.56929 4.44522C5.68117 4.05916 6.06347 3.81722 6.46026 3.88137L13.4603 5.01304C13.4966 5.01891 13.5321 5.02723 13.5667 5.03784H15.4332C15.4678 5.02723 15.5034 5.01891 15.5397 5.01304L22.5397 3.88137C22.9365 3.81722 23.3188 4.05916 23.4306 4.44522L25.7348 12.396C25.7389 12.41 25.7425 12.424 25.7458 12.4382C25.8262 12.7858 25.8075 13.149 25.6918 13.4865C25.5764 13.8233 25.3689 14.1211 25.093 14.3461C24.5977 14.7531 23.9557 14.8801 23.3701 14.7408C22.9632 17.5903 22.2886 19.8387 21.2995 21.4214C20.2125 23.1608 18.7163 24.1287 16.8333 24.1287H14.5024C14.5016 24.1288 14.5008 24.1288 14.5 24.1288C14.4992 24.1288 14.4984 24.1288 14.4975 24.1287H12.1666C10.2836 24.1287 8.78741 23.1608 7.70041 21.4214C6.71135 19.8387 6.03672 17.5903 5.6299 14.7408C5.52919 14.765 5.42614 14.7815 5.32162 14.7897C4.81074 14.8299 4.3041 14.6711 3.90754 14.3466C3.63132 14.1215 3.42367 13.8236 3.30813 13.4865C3.19244 13.149 3.17374 12.7858 3.25415 12.4382C3.25742 12.424 3.26108 12.41 3.26512 12.396L5.56929 4.44522ZM7.0643 13.6858L13.6465 6.62875H15.3535L21.9356 13.6858C21.9068 13.7529 21.8869 13.8251 21.8773 13.9012C21.4938 16.9678 20.8324 19.1668 19.9504 20.5783C19.0932 21.95 18.0618 22.5378 16.8333 22.5378H15.2954V21C15.2954 20.8319 15.2433 20.6759 15.1543 20.5475C15.4401 20.4701 15.7107 20.3311 15.9376 20.1042C16.3339 19.7079 16.4621 19.178 16.4621 18.6666C16.4621 18.2273 16.106 17.8712 15.6666 17.8712H13.3333C12.894 17.8712 12.5379 18.2273 12.5379 18.6666C12.5379 19.178 12.666 19.7079 13.0624 20.1042C13.2892 20.3311 13.5598 20.4701 13.8457 20.5475C13.7567 20.6759 13.7045 20.8319 13.7045 21V22.5378H12.1666C10.9381 22.5378 9.90679 21.95 9.04954 20.5783C8.1675 19.1668 7.50614 16.9678 7.12261 13.9012C7.11309 13.8251 7.09311 13.7529 7.0643 13.6858ZM17.2649 6.34568L23.526 13.0584C23.5297 13.0623 23.5333 13.0663 23.5369 13.0703C23.5387 13.0723 23.5405 13.0743 23.5422 13.0763C23.6746 13.2272 23.9217 13.2499 24.0834 13.1166L24.0872 13.1134L24.0873 13.1135C24.1332 13.0761 24.1677 13.0266 24.1869 12.9706C24.2044 12.9194 24.2085 12.8647 24.1989 12.8116L22.0986 5.56425L17.2649 6.34568ZM11.735 6.34568L6.90136 5.56425L4.80107 12.8116C4.79144 12.8647 4.79553 12.9194 4.81308 12.9706C4.83227 13.0266 4.86678 13.0761 4.91269 13.1135L4.91488 13.1152C4.9939 13.18 5.09491 13.2117 5.19677 13.2037C5.29863 13.1957 5.39343 13.1486 5.46135 13.0722C5.46549 13.0676 5.46969 13.063 5.47394 13.0584L11.735 6.34568ZM12.1666 12.0378C12.606 12.0378 12.9621 12.394 12.9621 12.8333V12.8397C12.9621 13.279 12.606 13.6351 12.1666 13.6351C11.7273 13.6351 11.3712 13.279 11.3712 12.8397V12.8333C11.3712 12.394 11.7273 12.0378 12.1666 12.0378ZM16.8333 12.0378C17.2726 12.0378 17.6288 12.394 17.6288 12.8333V12.8397C17.6288 13.279 17.2726 13.6351 16.8333 13.6351C16.394 13.6351 16.0379 13.279 16.0379 12.8397V12.8333C16.0379 12.394 16.394 12.0378 16.8333 12.0378Z" fill="currentColor"/>
</svg>
