<svg width="29" height="28" viewBox="0 0 29 28" fill="none" xmlns="http://www.w3.org/2000/svg">
<path fill-rule="evenodd" clip-rule="evenodd" d="M9.83387 4.2955C9.426 4.2955 9.03483 4.45753 8.74642 4.74593C8.45801 5.03434 8.29599 5.42551 8.29599 5.83338V13.2046H23.8339C24.3543 13.2046 24.8533 13.4113 25.2213 13.7793C25.5893 14.1473 25.796 14.6463 25.796 15.1667V18.6667C25.796 20.1154 25.2205 21.5047 24.1962 22.529C24.0527 22.6725 23.902 22.8072 23.745 22.9327L24.4957 24.0588C24.7394 24.4243 24.6406 24.9182 24.2751 25.1619C23.9096 25.4056 23.4157 25.3068 23.172 24.9413L22.3684 23.7358C21.7276 23.993 21.0377 24.1288 20.3339 24.1288H8.6672C7.96335 24.1288 7.2735 23.993 6.63271 23.7358L5.82906 24.9413C5.58537 25.3068 5.09149 25.4056 4.72596 25.1619C4.36043 24.9182 4.26165 24.4243 4.50534 24.0588L5.25605 22.9327C5.09906 22.8072 4.9484 22.6725 4.8049 22.529C3.78055 21.5047 3.20508 20.1154 3.20508 18.6667V15.1667C3.20508 14.6463 3.4118 14.1473 3.77977 13.7793C4.14774 13.4113 4.64681 13.2046 5.1672 13.2046H6.70508V5.83338C6.70508 5.00357 7.03472 4.20775 7.62148 3.62099C8.20824 3.03423 9.00406 2.70459 9.83387 2.70459H13.3339C13.7732 2.70459 14.1293 3.06073 14.1293 3.50004V6.12504C14.1293 6.56436 13.7732 6.9205 13.3339 6.9205C12.8945 6.9205 12.5384 6.56436 12.5384 6.12504V4.2955H9.83387ZM5.1672 14.7955C5.06875 14.7955 4.97433 14.8346 4.90471 14.9042C4.8351 14.9738 4.79599 15.0683 4.79599 15.1667V18.6667C4.79599 19.6934 5.20385 20.6781 5.92984 21.4041C6.65583 22.1301 7.64049 22.5379 8.6672 22.5379H20.3339C21.3606 22.5379 22.3452 22.1301 23.0712 21.4041C23.7972 20.6781 24.2051 19.6934 24.2051 18.6667V15.1667C24.2051 15.0683 24.166 14.9738 24.0964 14.9042C24.0267 14.8346 23.9323 14.7955 23.8339 14.7955H5.1672Z" fill="currentColor"/>
</svg>
