<svg width="29" height="28" viewBox="0 0 29 28" fill="none" xmlns="http://www.w3.org/2000/svg">
<path fill-rule="evenodd" clip-rule="evenodd" d="M13.9381 2.93757C14.2487 2.62693 14.7524 2.62693 15.063 2.93757L25.563 13.4376C25.8737 13.7482 25.8737 14.2519 25.563 14.5625C25.2524 14.8732 24.7487 14.8732 24.4381 14.5625L14.5006 4.62499L5.92095 13.2046H6.33389C6.77321 13.2046 7.12934 13.5607 7.12934 14V22.1667C7.12934 22.5746 7.29137 22.9657 7.57978 23.2542C7.86819 23.5426 8.25935 23.7046 8.66722 23.7046H10.2051V17.5C10.2051 16.6702 10.5347 15.8744 11.1215 15.2877C11.7083 14.7009 12.5041 14.3713 13.3339 14.3713H15.6672C16.2764 14.3713 16.8465 14.5466 17.3268 14.847C17.6993 15.0799 17.8124 15.5707 17.5795 15.9432C17.3465 16.3156 16.8557 16.4287 16.4833 16.1958C16.2472 16.0482 15.968 15.9622 15.6672 15.9622H13.3339C12.926 15.9622 12.5349 16.1242 12.2464 16.4126C11.958 16.701 11.796 17.0922 11.796 17.5V23.7046H15.6672C16.1065 23.7046 16.4627 24.0607 16.4627 24.5C16.4627 24.9394 16.1065 25.2955 15.6672 25.2955H8.66722C7.83742 25.2955 7.0416 24.9659 6.45484 24.3791C5.86807 23.7923 5.53843 22.9965 5.53843 22.1667V14.7955H4.00056C3.67882 14.7955 3.38877 14.6017 3.26565 14.3045C3.14253 14.0072 3.21059 13.6651 3.43808 13.4376L13.9381 2.93757ZM20.052 18.0953C20.3857 17.9532 20.7447 17.88 21.1074 17.88C21.4701 17.88 21.8291 17.9532 22.1628 18.0953C22.3428 18.172 22.5134 18.2678 22.6719 18.3809C22.8304 18.2678 23.001 18.172 23.181 18.0953C23.5147 17.9532 23.8737 17.88 24.2364 17.88C24.5991 17.88 24.9581 17.9532 25.2918 18.0953C25.6253 18.2374 25.9268 18.4453 26.1781 18.7066C26.6846 19.2331 26.9676 19.9352 26.9676 20.6658C26.9676 21.3964 26.6846 22.0985 26.1781 22.6249L26.1742 22.629L23.3065 25.5672C23.2212 25.6824 23.1046 25.7749 22.9659 25.8311C22.6656 25.9528 22.3215 25.8801 22.096 25.6475L19.1677 22.6258L19.1655 22.6235C18.6594 22.0972 18.3767 21.3954 18.3767 20.6652C18.3767 19.935 18.6594 19.2332 19.1655 18.7069C19.4168 18.4454 19.7184 18.2374 20.052 18.0953ZM22.6641 23.9477L25.0317 21.5218C25.0323 21.5212 25.0329 21.5206 25.0334 21.52C25.2537 21.2902 25.3767 20.9842 25.3767 20.6658C25.3767 20.3466 25.2531 20.0398 25.0317 19.8098C24.9288 19.7027 24.805 19.6172 24.6684 19.559C24.5318 19.5009 24.3849 19.4709 24.2364 19.4709C24.0879 19.4709 23.941 19.5009 23.8043 19.559C23.6677 19.6172 23.5443 19.7024 23.4414 19.8094L23.437 19.814L23.2409 20.0147C23.0913 20.1679 22.8861 20.2543 22.6719 20.2543C22.4577 20.2543 22.2525 20.1679 22.1028 20.0147L21.9024 19.8095C21.7995 19.7024 21.676 19.6172 21.5394 19.559C21.4028 19.5009 21.2559 19.4709 21.1074 19.4709C20.9589 19.4709 20.812 19.5009 20.6753 19.559C20.5387 19.6172 20.4153 19.7024 20.3124 19.8094C20.0913 20.0394 19.9676 20.3462 19.9676 20.6652C19.9676 20.9838 20.0908 21.2901 20.3114 21.5199C20.3117 21.5202 20.312 21.5206 20.3123 21.5209L22.6641 23.9477Z" fill="currentColor"/>
</svg>
