<svg width="40" height="40" viewBox="0 0 40 40" fill="none" xmlns="http://www.w3.org/2000/svg">
<path fill-rule="evenodd" clip-rule="evenodd" d="M20.0171 6.15517C19.6836 6.15517 19.3534 6.22109 19.0455 6.34914C18.7376 6.47719 18.458 6.66485 18.2229 6.90132L18.2206 6.90358L17.0539 8.07024L17.0517 8.0725C16.1524 8.96674 14.9359 9.46902 13.6677 9.46974H12.0004C11.3293 9.46974 10.6857 9.73633 10.2112 10.2109C9.73669 10.6854 9.47011 11.329 9.47011 12V13.6667C9.46938 14.9349 8.96711 16.152 8.07287 17.0513L8.07061 17.0536L6.90394 18.2202L6.90168 18.2225C6.66521 18.4576 6.47756 18.7372 6.34951 19.0451C6.22146 19.353 6.15554 19.6832 6.15554 20.0167C6.15554 20.3502 6.22146 20.6804 6.34951 20.9883C6.47756 21.2962 6.66521 21.5758 6.90168 21.8109L6.90395 21.8132L8.07287 22.9821C8.96711 23.8814 9.46938 25.0978 9.47011 26.3661V28.0334C9.47011 28.7045 9.73669 29.348 10.2112 29.8226C10.6857 30.2971 11.3293 30.5637 12.0004 30.5637H13.6671C14.9353 30.5644 16.1524 31.0667 17.0517 31.9609L17.0539 31.9632L18.2229 33.1321C18.458 33.3686 18.7376 33.5562 19.0455 33.6843C19.3534 33.8123 19.6836 33.8783 20.0171 33.8783C20.3506 33.8783 20.6807 33.8123 20.9887 33.6843C21.2966 33.5562 21.5762 33.3686 21.8113 33.1321L21.8135 33.1298L22.9802 31.9632L22.9825 31.9609C23.8818 31.0667 25.0982 30.5644 26.3664 30.5637H28.0337C28.7048 30.5637 29.3484 30.2971 29.8229 29.8226C30.2975 29.348 30.564 28.7045 30.564 28.0334V26.3667C30.5648 25.0985 31.0671 23.8814 31.9613 22.9821L31.9635 22.9798L33.1302 21.8132L33.1325 21.8109C33.3689 21.5758 33.5566 21.2962 33.6846 20.9883C33.8127 20.6804 33.8786 20.3502 33.8786 20.0167C33.8786 19.6832 33.8127 19.353 33.6846 19.0451C33.5566 18.7372 33.3689 18.4576 33.1325 18.2225L33.1302 18.2202L31.9635 17.0536L31.9616 17.0516C31.0663 16.1519 30.564 14.9337 30.564 13.6667V12C30.564 11.329 30.2975 10.6854 29.8229 10.2109C29.3484 9.73633 28.7048 9.46974 28.0337 9.46974H26.3671C25.1001 9.46974 23.8819 8.96752 22.9822 8.0722L21.8135 6.90358L21.8113 6.90132C21.5762 6.66485 21.2966 6.47719 20.9887 6.34914C20.6807 6.22109 20.3506 6.15517 20.0171 6.15517ZM18.1728 4.25064C18.7573 4.00758 19.3841 3.88245 20.0171 3.88245C20.6501 3.88245 21.2769 4.00758 21.8614 4.25064C22.4454 4.49352 22.9757 4.84936 23.4218 5.29772C23.4222 5.29808 23.4225 5.29843 23.4229 5.29878L24.5853 6.46123C24.5856 6.46146 24.5858 6.4617 24.586 6.46193C25.0596 6.93284 25.7011 7.19702 26.3671 7.19702H28.0337C29.3076 7.19702 30.5293 7.70305 31.43 8.60379C32.3307 9.50453 32.8368 10.7262 32.8368 12V13.6667C32.8368 14.3327 33.1009 14.9741 33.5717 15.4477C33.572 15.4479 33.5723 15.4482 33.5726 15.4485L34.735 16.6109C34.7355 16.6114 34.7359 16.6118 34.7363 16.6122C35.1846 17.0583 35.5403 17.5885 35.7831 18.1724C36.0262 18.7569 36.1513 19.3837 36.1513 20.0167C36.1513 20.6497 36.0262 21.2765 35.7831 21.861C35.5403 22.4449 35.1846 22.9751 34.7363 23.4212C34.7359 23.4216 34.7355 23.4221 34.735 23.4225L33.5729 24.5847C33.5725 24.585 33.5721 24.5854 33.5718 24.5858C33.1013 25.0594 32.8372 25.6998 32.8368 26.3674V28.0334C32.8368 29.3072 32.3307 30.5289 31.43 31.4296C30.5293 32.3304 29.3076 32.8364 28.0337 32.8364H26.3677C25.7001 32.8368 25.0598 33.101 24.5861 33.5714C24.5858 33.5718 24.5854 33.5721 24.585 33.5725L23.4229 34.7346C23.4224 34.7351 23.422 34.7355 23.4215 34.736C22.9755 35.1842 22.4453 35.54 21.8614 35.7828C21.2769 36.0258 20.6501 36.151 20.0171 36.151C19.3841 36.151 18.7573 36.0258 18.1728 35.7828C17.5889 35.54 17.0587 35.1842 16.6126 34.736C16.6122 34.7355 16.6117 34.7351 16.6113 34.7346L15.4491 33.5725C15.4488 33.5722 15.4485 33.5718 15.4482 33.5715C14.9745 33.101 14.3341 32.8368 13.6664 32.8364H12.0004C10.7266 32.8364 9.5049 32.3304 8.60416 31.4296C7.70342 30.5289 7.19738 29.3072 7.19738 28.0334L7.19738 26.3674C7.19683 25.6999 6.93257 25.059 6.46216 24.5855C6.46187 24.5852 6.46158 24.5849 6.4613 24.5847L5.29914 23.4225C5.29879 23.4221 5.29844 23.4218 5.29809 23.4214C4.84972 22.9753 4.49388 22.445 4.25101 21.861C4.00794 21.2765 3.88281 20.6497 3.88281 20.0167C3.88281 19.3837 4.00794 18.7569 4.25101 18.1724C4.49387 17.5884 4.84969 17.0582 5.29804 16.612C5.29841 16.6117 5.29877 16.6113 5.29914 16.6109L6.4613 15.4488C6.46164 15.4484 6.46198 15.4481 6.46232 15.4477C6.93263 14.9742 7.19683 14.3341 7.19738 13.6667V12C7.19738 10.7262 7.70342 9.50453 8.60416 8.60379C9.5049 7.70305 10.7266 7.19702 12.0004 7.19702L13.6664 7.19702C14.3338 7.19646 14.9746 6.93226 15.4481 6.46196C15.4485 6.46161 15.4488 6.46127 15.4491 6.46093L16.6113 5.29878C16.6117 5.29841 16.612 5.29804 16.6124 5.29767C17.0585 4.84933 17.5888 4.49351 18.1728 4.25064ZM25.8039 15.8632C26.2477 16.307 26.2477 17.0265 25.8039 17.4702L19.1373 24.1369C18.6935 24.5807 17.974 24.5807 17.5302 24.1369L14.1969 20.8036C13.7531 20.3598 13.7531 19.6403 14.1969 19.1965C14.6407 18.7527 15.3602 18.7527 15.8039 19.1965L18.3337 21.7263L24.1969 15.8632C24.6407 15.4194 25.3602 15.4194 25.8039 15.8632Z" fill="currentColor"/>
</svg>
