<svg width="53" height="52" viewBox="0 0 53 52" fill="none" xmlns="http://www.w3.org/2000/svg">
<path fill-rule="evenodd" clip-rule="evenodd" d="M25.5211 5.39357C26.0801 4.89908 26.92 4.89908 27.4789 5.39357C32.2523 9.61674 38.4824 11.8156 44.8492 11.5242C45.529 11.4931 46.1421 11.9305 46.334 12.5834C47.888 17.8707 47.8162 23.5032 46.1279 28.7492C45.878 29.5259 45.0458 29.9528 44.2691 29.7029C43.4925 29.4529 43.0655 28.6207 43.3154 27.8441C44.707 23.5203 44.868 18.9023 43.7921 14.5044C37.5029 14.5192 31.398 12.375 26.5 8.43259C21.6021 12.375 15.4971 14.5192 9.20787 14.5044C7.77262 20.3699 8.55 26.5747 11.4159 31.9199C14.4597 37.5968 19.6148 41.8481 25.7674 43.7553C26.5467 43.9968 26.9826 44.8244 26.7411 45.6037C26.4995 46.383 25.6719 46.8189 24.8926 46.5773C17.9988 44.4404 12.2225 39.6768 8.81204 33.316C5.40155 26.9552 4.63069 19.5079 6.66604 12.5834C6.85795 11.9305 7.47106 11.4931 8.15088 11.5242C14.5177 11.8156 20.7477 9.61674 25.5211 5.39357ZM47.0446 35.7887C47.6215 36.3656 47.6215 37.301 47.0446 37.8779L38.3779 46.5446C38.1009 46.8216 37.7252 46.9772 37.3334 46.9772C36.9416 46.9772 36.5658 46.8216 36.2888 46.5446L31.9554 42.2112C31.3785 41.6343 31.3785 40.699 31.9554 40.1221C32.5323 39.5451 33.4677 39.5451 34.0446 40.1221L37.3334 43.4108L44.9554 35.7887C45.5323 35.2118 46.4677 35.2118 47.0446 35.7887Z" fill="currentColor"/>
</svg>
