<svg width="28" height="28" viewBox="0 0 28 28" fill="none" xmlns="http://www.w3.org/2000/svg">
<path fill-rule="evenodd" clip-rule="evenodd" d="M11.6674 4.2955C11.2595 4.2955 10.8683 4.45752 10.5799 4.74593C10.2915 5.03434 10.1295 5.42551 10.1295 5.83338V7.37126H17.8719V5.83338C17.8719 5.42551 17.7099 5.03434 17.4215 4.74593C17.1331 4.45752 16.7419 4.2955 16.334 4.2955H11.6674ZM19.4628 7.37126V5.83338C19.4628 5.00357 19.1332 4.20775 18.5464 3.62099C17.9597 3.03423 17.1638 2.70459 16.334 2.70459H11.6674C10.8376 2.70459 10.0417 3.03423 9.45498 3.62099C8.86822 4.20775 8.53858 5.00357 8.53858 5.83338V7.37126H5.83404C5.00423 7.37126 4.20841 7.7009 3.62165 8.28766C3.03489 8.87442 2.70525 9.67024 2.70525 10.5V15.1496C2.70502 15.1606 2.70502 15.1716 2.70525 15.1826V21C2.70525 21.8298 3.03489 22.6257 3.62165 23.2124C4.20841 23.7992 5.00423 24.1288 5.83404 24.1288H22.1674C22.9972 24.1288 23.793 23.7992 24.3798 23.2124C24.9665 22.6257 25.2962 21.8299 25.2962 21V15.1826C25.2964 15.1716 25.2964 15.1606 25.2962 15.1495V10.5C25.2962 9.67024 24.9665 8.87442 24.3798 8.28766C23.793 7.7009 22.9972 7.37126 22.1674 7.37126H19.4628ZM23.7053 14.6709V10.5C23.7053 10.0922 23.5432 9.70101 23.2548 9.4126C22.9664 9.12419 22.5752 8.96217 22.1674 8.96217H5.83404C5.42617 8.96217 5.035 9.12419 4.74659 9.4126C4.45819 9.70101 4.29616 10.0922 4.29616 10.5V14.6709C7.32512 16.116 10.6406 16.8673 14.0007 16.8673C17.3608 16.8673 20.6763 16.116 23.7053 14.6709ZM4.29616 16.4206V21C4.29616 21.4079 4.45819 21.7991 4.74659 22.0875C5.035 22.3759 5.42617 22.5379 5.83404 22.5379H22.1674C22.5752 22.5379 22.9664 22.3759 23.2548 22.0875C23.5432 21.7991 23.7053 21.4079 23.7053 21V16.4206C20.6506 17.7625 17.3463 18.4582 14.0007 18.4582C10.6551 18.4582 7.35079 17.7625 4.29616 16.4206ZM14.0007 13.2046C14.44 13.2046 14.7962 13.5607 14.7962 14V14.007C14.7962 14.4464 14.44 14.8025 14.0007 14.8025C13.5614 14.8025 13.2053 14.4464 13.2053 14.007V14C13.2053 13.5607 13.5614 13.2046 14.0007 13.2046Z" fill="currentColor"/>
</svg>
