<svg width="40" height="40" viewBox="0 0 40 40" fill="none" xmlns="http://www.w3.org/2000/svg">
<path fill-rule="evenodd" clip-rule="evenodd" d="M9.99965 7.803C8.97495 7.803 7.99221 8.21006 7.26764 8.93463C6.54307 9.65921 6.13601 10.6419 6.13601 11.6666V25C6.13601 26.0247 6.54307 27.0074 7.26764 27.732C7.99221 28.4565 8.97494 28.8636 9.99965 28.8636H13.333C13.9606 28.8636 14.4693 29.3724 14.4693 30V32.9929L21.0817 29.0255C21.2583 28.9196 21.4604 28.8636 21.6663 28.8636H29.9996C31.0243 28.8636 32.0071 28.4565 32.7317 27.732C33.4562 27.0074 33.8633 26.0247 33.8633 25V11.6666C33.8633 10.6419 33.4562 9.65921 32.7317 8.93463C32.0071 8.21006 31.0243 7.803 29.9996 7.803H9.99965ZM5.66058 7.32757C6.81137 6.17678 8.37218 5.53027 9.99965 5.53027H29.9996C31.6271 5.53027 33.1879 6.17678 34.3387 7.32757C35.4895 8.47836 36.136 10.0392 36.136 11.6666V25C36.136 26.6274 35.4895 28.1882 34.3387 29.339C33.1879 30.4898 31.6271 31.1363 29.9996 31.1363H21.9811L13.9176 35.9744C13.5666 36.185 13.1294 36.1905 12.7731 35.9888C12.4168 35.7871 12.1966 35.4094 12.1966 35V31.1363H9.99965C8.37218 31.1363 6.81137 30.4898 5.66058 29.339C4.50979 28.1882 3.86328 26.6274 3.86328 25V11.6666C3.86328 10.0392 4.50979 8.47836 5.66058 7.32757ZM14.6966 15C14.6966 14.3724 15.2054 13.8636 15.833 13.8636H15.8496C16.4772 13.8636 16.986 14.3724 16.986 15C16.986 15.6276 16.4772 16.1363 15.8496 16.1363H15.833C15.2054 16.1363 14.6966 15.6276 14.6966 15ZM23.0299 15C23.0299 14.3724 23.5387 13.8636 24.1663 13.8636H24.183C24.8106 13.8636 25.3193 14.3724 25.3193 15C25.3193 15.6276 24.8106 16.1363 24.183 16.1363H24.1663C23.5387 16.1363 23.0299 15.6276 23.0299 15ZM15.0377 20.8549C15.486 20.4157 16.2054 20.4231 16.6447 20.8713C17.082 21.3177 17.604 21.6723 18.1801 21.9144C18.7562 22.1564 19.3748 22.2811 19.9996 22.2811C20.6245 22.2811 21.2431 22.1564 21.8192 21.9144C22.3953 21.6723 22.9173 21.3177 23.3546 20.8713C23.7938 20.4231 24.5133 20.4157 24.9616 20.8549C25.4099 21.2942 25.4172 22.0136 24.978 22.4619C24.3291 23.1242 23.5545 23.6504 22.6997 24.0096C21.8448 24.3688 20.9269 24.5539 19.9996 24.5539C19.0724 24.5539 18.1545 24.3688 17.2996 24.0096C16.4448 23.6504 15.6702 23.1242 15.0213 22.4619C14.5821 22.0136 14.5894 21.2942 15.0377 20.8549Z" fill="currentColor"/>
</svg>
