<svg width="28" height="28" viewBox="0 0 28 28" fill="none" xmlns="http://www.w3.org/2000/svg">
<path fill-rule="evenodd" clip-rule="evenodd" d="M8.23754 3.38679C9.32488 2.9364 10.4903 2.70459 11.6672 2.70459C12.8441 2.70459 14.0095 2.9364 15.0969 3.38679C16.1842 3.83718 17.1722 4.49732 18.0044 5.32953C18.8366 6.16174 19.4967 7.14972 19.9471 8.23706C20.3975 9.32439 20.6293 10.4898 20.6293 11.6667C20.6293 12.8436 20.3975 14.009 19.9471 15.0964C19.5985 15.938 19.1243 16.72 18.5418 17.4164L25.063 23.9376C25.3736 24.2482 25.3736 24.7519 25.063 25.0625C24.7524 25.3732 24.2487 25.3732 23.9381 25.0625L17.4169 18.5413C16.7205 19.1238 15.9384 19.598 15.0969 19.9466C14.0095 20.397 12.8441 20.6288 11.6672 20.6288C10.4903 20.6288 9.32488 20.397 8.23754 19.9466C7.15021 19.4962 6.16223 18.8361 5.33002 18.0039C4.49781 17.1717 3.83767 16.1837 3.38728 15.0964C2.93689 14.009 2.70508 12.8436 2.70508 11.6667C2.70508 10.4898 2.93689 9.32439 3.38728 8.23706C3.83767 7.14972 4.49781 6.16174 5.33002 5.32953C6.16223 4.49732 7.15021 3.83718 8.23754 3.38679ZM11.6672 4.2955C10.6992 4.2955 9.74067 4.48616 8.84636 4.8566C7.95204 5.22704 7.13945 5.77 6.45497 6.45448C5.77048 7.13896 5.22753 7.95155 4.85709 8.84587C4.48665 9.74019 4.29599 10.6987 4.29599 11.6667C4.29599 12.6347 4.48665 13.5932 4.85709 14.4876C5.22753 15.3819 5.77048 16.1945 6.45497 16.8789C7.13945 17.5634 7.95204 18.1064 8.84636 18.4768C9.74067 18.8473 10.6992 19.0379 11.6672 19.0379C12.6352 19.0379 13.5937 18.8473 14.488 18.4768C15.3824 18.1064 16.195 17.5634 16.8794 16.8789C17.5639 16.1945 18.1069 15.3819 18.4773 14.4876C18.8477 13.5932 19.0384 12.6347 19.0384 11.6667C19.0384 10.6987 18.8477 9.74019 18.4773 8.84587C18.1069 7.95155 17.5639 7.13896 16.8794 6.45448C16.195 5.77 15.3824 5.22704 14.488 4.8566C13.5937 4.48616 12.6352 4.2955 11.6672 4.2955Z" fill="currentColor"/>
</svg>
