<svg width="32" height="32" viewBox="0 0 32 32" fill="none" xmlns="http://www.w3.org/2000/svg">
<path d="M13.9689 1.23847C14.8608 -0.412821 17.1392 -0.412823 18.0311 1.23846L21.5442 7.7434C21.8769 8.35943 22.4499 8.79393 23.1141 8.9338L30.1276 10.4107C31.908 10.7856 32.6121 13.0471 31.3829 14.4426L26.5406 19.9397C26.0821 20.4603 25.8632 21.1633 25.941 21.8658L26.7624 29.2835C26.9709 31.1665 25.1276 32.5642 23.4761 31.7753L16.9703 28.6678C16.3542 28.3735 15.6458 28.3735 15.0297 28.6678L8.52391 31.7753C6.87239 32.5642 5.02905 31.1665 5.23758 29.2835L6.05901 21.8658C6.1368 21.1633 5.91792 20.4603 5.45935 19.9397L0.617097 14.4426C-0.612117 13.0471 0.0919742 10.7856 1.87236 10.4107L8.88586 8.9338C9.55005 8.79393 10.1231 8.35943 10.4558 7.7434L13.9689 1.23847Z" fill="currentColor"/>
</svg>
