<svg width="53" height="52" viewBox="0 0 53 52" fill="none" xmlns="http://www.w3.org/2000/svg">
<path fill-rule="evenodd" clip-rule="evenodd" d="M18.7972 10.172C17.5128 10.035 16.2141 10.1654 14.9826 10.555C13.7511 10.9446 12.6137 11.585 11.6419 12.4358C10.6701 13.2865 9.88493 14.3293 9.33593 15.4985C8.78693 16.6676 8.48594 17.9377 8.45193 19.2289C8.41792 20.5201 8.65162 21.8043 9.13831 23.0007C9.625 24.1971 10.3541 25.2798 11.2798 26.1806L11.2892 26.1897L26.4996 41.2541L29.8481 37.9377L26.5383 34.6279C25.9614 34.051 25.9614 33.1156 26.5383 32.5387C27.1152 31.9618 28.0506 31.9618 28.6275 32.5387L31.9474 35.8586L35.2909 32.5472L31.955 29.2113C31.3781 28.6343 31.3781 27.699 31.955 27.1221C32.5319 26.5452 33.4673 26.5452 34.0442 27.1221L37.3902 30.4681L40.7337 27.1567L36.83 23.2529C35.8141 22.237 34.4363 21.6663 32.9996 21.6663C31.5629 21.6663 30.185 22.237 29.1692 23.2529L27.0025 25.4196C24.9306 27.4915 21.5686 27.4915 19.4966 25.4196L18.3201 24.2431C17.637 23.5597 17.2531 22.6329 17.2531 21.6667C17.2531 20.7004 17.6369 19.7737 18.32 19.0904L24.4853 12.925C23.8825 12.3102 23.1963 11.7801 22.4451 11.3511C21.3236 10.7105 20.0815 10.309 18.7972 10.172ZM27.4212 14.1675L20.4095 21.1793C20.4094 21.1793 20.4095 21.1792 20.4095 21.1793C20.2803 21.3085 20.2076 21.4839 20.2076 21.6667C20.2076 21.8494 20.2802 22.0246 20.4093 22.1539C20.4093 22.1538 20.4094 22.154 20.4093 22.1539L21.5858 23.3304C22.5039 24.2485 23.9952 24.2485 24.9133 23.3304L27.08 21.1637C28.65 19.5938 30.7793 18.7118 32.9996 18.7118C35.2198 18.7118 37.3492 19.5938 38.9192 21.1637L42.7489 24.9934C43.1885 24.3833 43.5541 23.7208 43.8366 23.0197C44.3177 21.8254 44.5472 20.5446 44.5106 19.2575C44.4739 17.9705 44.1721 16.7048 43.6238 15.5398C43.0756 14.3747 42.2927 13.3354 41.3243 12.4868C40.3559 11.6383 39.2228 10.9987 37.9959 10.6082C36.7689 10.2177 35.4746 10.0846 34.1939 10.2174C32.9131 10.3501 31.6736 10.7457 30.5528 11.3795C29.432 12.0133 28.4541 12.8717 27.6803 13.9008C27.6047 14.0014 27.5175 14.0907 27.4212 14.1675ZM43.6646 28.4122C43.7061 28.3795 43.7462 28.3441 43.7847 28.3062C44.9934 27.1191 45.944 25.6952 46.5771 24.1237C47.2102 22.5522 47.5121 20.867 47.4639 19.1735C47.4157 17.48 47.0185 15.8147 46.2971 14.2817C45.5758 12.7488 44.5457 11.3813 43.2715 10.2647C41.9973 9.14817 40.5063 8.30665 38.8919 7.79282C37.2776 7.27899 35.5745 7.10391 33.8893 7.27855C32.2041 7.45319 30.5732 7.97378 29.0984 8.80774C28.1492 9.34455 27.2778 10.0038 26.5058 10.7665C25.7344 9.99577 24.862 9.32903 23.9105 8.78552C22.4348 7.94261 20.8005 7.4144 19.1106 7.23413C17.4207 7.05386 15.7117 7.22544 14.0914 7.73807C12.4711 8.25071 10.9744 9.09328 9.69571 10.2127C8.417 11.3322 7.38394 12.7043 6.66156 14.2426C5.93919 15.781 5.54316 17.4522 5.49841 19.1511C5.45366 20.85 5.76116 22.5398 6.40154 24.114C7.04108 25.6862 7.99879 27.1091 9.2145 28.2934L25.46 44.3829C26.0358 44.9531 26.9634 44.9531 27.5391 44.3829L43.6646 28.4122Z" fill="currentColor"/>
</svg>
