<svg width="56" height="54" viewBox="0 0 56 54" fill="none" xmlns="http://www.w3.org/2000/svg">
<path d="M33.0458 18.5283C35.9773 15.3962 36.8284 14.6457 39.0845 15.2653C41.3406 15.8849 41.8328 17.5064 42.8475 21.7065C43.7179 25.298 47.0616 26.4958 47.2184 29.3855C47.265 29.92 47.1532 30.7003 47.0128 31.2228C46.4481 33.3828 44.6422 34.5089 42.827 34.0103C40.5709 33.3907 37.9312 30.6972 35.2433 29.959C32.5553 29.2208 28.9554 30.2006 26.6993 29.581C24.884 29.0825 23.8689 27.1836 24.4341 25.0217C24.5709 24.4983 24.8566 23.7657 25.1576 23.3267C26.7055 20.8954 30.5401 21.1926 33.0458 18.5283Z" fill="#FFCF75"/>
<path d="M25.813 5.87607C26.0693 5.83955 26.3301 5.85628 26.5799 5.92528L26.6068 5.93266C27.9181 6.31642 29.0422 8.07794 29.2822 10.3408C29.5712 13.0482 28.4876 15.4377 26.8527 15.6817C26.5951 15.7192 26.3349 15.7009 26.0858 15.6325C24.7615 15.2688 23.6197 13.4945 23.3781 11.2155C23.0945 8.50951 24.1871 6.12248 25.813 5.87607Z" fill="#FFCF75"/>
<path d="M44.5713 12.835C44.4728 12.808 44.376 12.7814 44.2845 12.7346C42.6544 12.0349 42.1837 9.50792 43.2261 7.08544C44.2126 4.80313 46.1908 3.43689 47.7767 3.87244C47.8752 3.89951 47.972 3.92608 48.0635 3.97286C49.6936 4.67255 50.1643 7.19953 49.1219 9.62202C48.1355 11.8965 46.1554 13.2701 44.5695 12.8345L44.5713 12.835Z" fill="#FFCF75"/>
<path d="M33.1484 5.23504C33.4256 2.60241 35.0659 0.655166 36.8207 0.885145C36.9205 0.897909 37.0192 0.917799 37.1163 0.944668C38.7022 1.38022 39.7471 3.5767 39.4863 6.05833C39.2091 8.69096 37.5688 10.6382 35.8139 10.4082C35.7138 10.3945 35.6151 10.3753 35.5183 10.3487C33.9324 9.91315 32.8859 7.70833 33.1484 5.23504Z" fill="#FFCF75"/>
<path d="M49.4709 21.8935C48.1776 20.8454 48.4075 18.2175 49.9758 16.0241C51.2968 14.1742 53.1493 13.2223 54.4718 13.5855C54.7227 13.6544 54.9552 13.7714 55.1618 13.9364C56.455 14.9845 56.2251 17.6125 54.6568 19.8059C53.3358 21.6557 51.4833 22.6076 50.1608 22.2444C49.9099 22.1755 49.6774 22.0585 49.4709 21.8935Z" fill="#FFCF75"/>
<path d="M6.9375 41.9912C9.0314 39.754 9.63936 39.2179 11.2508 39.6605C12.8623 40.1031 13.2139 41.2613 13.9387 44.2613C14.5604 46.8267 16.9487 47.6823 17.0608 49.7464C17.0941 50.1281 17.0142 50.6855 16.9139 51.0587C16.5106 52.6015 15.2206 53.4059 13.924 53.0498C12.3125 52.6072 10.4271 50.6833 8.5071 50.156C6.58715 49.6287 4.01575 50.3286 2.40426 49.886C1.10765 49.5299 0.382572 48.1735 0.786247 46.6294C0.883991 46.2555 1.08801 45.7322 1.30306 45.4186C2.40869 43.682 5.14769 43.8943 6.9375 41.9912Z" fill="#FFCF75"/>
<path d="M1.77121 32.9539C1.95426 32.9278 2.14056 32.9398 2.319 32.9891L2.3382 32.9943C3.27486 33.2685 4.07773 34.5267 4.2492 36.143C4.45565 38.0769 3.68159 39.7837 2.51385 39.9579C2.32987 39.9847 2.14397 39.9716 1.96605 39.9228C1.02016 39.663 0.204582 38.3956 0.0320091 36.7678C-0.170593 34.8349 0.609867 33.1299 1.77121 32.9539Z" fill="#FFCF75"/>
<path d="M15.17 37.9246C15.0996 37.9053 15.0305 37.8863 14.9651 37.8529C13.8007 37.3531 13.4646 35.5481 14.2091 33.8177C14.9138 32.1875 16.3268 31.2116 17.4595 31.5227C17.5299 31.5421 17.599 31.5611 17.6644 31.5945C18.8288 32.0943 19.165 33.8992 18.4204 35.6296C17.7158 37.2542 16.3015 38.2353 15.1687 37.9242L15.17 37.9246Z" fill="#FFCF75"/>
<path d="M7.01073 32.496C7.20874 30.6156 8.38038 29.2247 9.63385 29.389C9.7051 29.3981 9.77565 29.4123 9.84497 29.4315C10.9777 29.7426 11.7241 31.3115 11.5378 33.0841C11.3398 34.9646 10.1682 36.3554 8.9147 36.1912C8.84318 36.1814 8.77268 36.1676 8.70356 36.1486C7.57079 35.8375 6.82327 34.2627 7.01073 32.496Z" fill="#FFCF75"/>
<path d="M18.6697 44.395C17.7459 43.6463 17.9101 41.7692 19.0303 40.2025C19.9739 38.8812 21.2971 38.2012 22.2418 38.4607C22.421 38.5099 22.5871 38.5935 22.7346 38.7113C23.6583 39.46 23.4941 41.337 22.3739 42.9038C21.4304 44.2251 20.1071 44.905 19.1625 44.6456C18.9833 44.5964 18.8172 44.5128 18.6697 44.395Z" fill="#FFCF75"/>
</svg>
