<svg width="32" height="32" viewBox="0 0 32 32" fill="none" xmlns="http://www.w3.org/2000/svg">
<path fill-rule="evenodd" clip-rule="evenodd" d="M22.0835 1.33325C22.0835 0.642896 22.6431 0.083252 23.3335 0.083252H30.6668C31.3572 0.083252 31.9168 0.642896 31.9168 1.33325V8.66659C31.9168 9.35694 31.3572 9.91659 30.6668 9.91659C29.9765 9.91659 29.4168 9.35694 29.4168 8.66659V4.35102L20.5507 13.2171C20.0626 13.7053 19.2711 13.7053 18.7829 13.2171C18.2948 12.729 18.2948 11.9375 18.7829 11.4494L27.6491 2.58325H23.3335C22.6431 2.58325 22.0835 2.02361 22.0835 1.33325ZM13.2174 18.7827C13.7055 19.2709 13.7055 20.0623 13.2174 20.5505L4.35126 29.4166H8.66683C9.35719 29.4166 9.91683 29.9762 9.91683 30.6666C9.91683 31.3569 9.35719 31.9166 8.66683 31.9166H1.3335C0.64314 31.9166 0.0834961 31.3569 0.0834961 30.6666V23.3333C0.0834961 22.6429 0.64314 22.0833 1.3335 22.0833C2.02385 22.0833 2.5835 22.6429 2.5835 23.3333V27.6488L11.4496 18.7827C11.9378 18.2945 12.7292 18.2945 13.2174 18.7827Z" fill="currentColor"/>
</svg>
